<?xml version="1.0" standalone="no"?>
<svg viewBox="0 0 200 200" xmlns="http://www.w3.org/2000/svg">
  <path fill="#F5F5F5" d="M41.5,-63.9C54.1,-56.5,64.8,-45.5,72.3,-32.1C79.8,-18.8,84,-3,82.9,12.6C81.7,28.2,75,43.7,62.3,48.2C49.5,52.7,30.5,46,17.2,42.8C3.8,39.6,-4,39.9,-13.7,40C-23.5,40.2,-35.2,40.4,-48,35.9C-60.8,31.3,-74.7,22,-81.6,8.5C-88.5,-5,-88.5,-22.7,-81.8,-37.3C-75,-52,-61.7,-63.6,-46.9,-70C-32.2,-76.5,-16.1,-77.9,-0.8,-76.6C14.5,-75.3,28.9,-71.4,41.5,-63.9Z" transform="translate(100 100)" />
</svg>
