<?xml version="1.0" standalone="no"?>
<svg viewBox="0 0 200 200" xmlns="http://www.w3.org/2000/svg">
  <path fill="#F5F5F5" d="M31,-46.6C45,-39.2,64.5,-38.8,73,-30.3C81.6,-21.9,79.1,-5.4,72.3,7.1C65.4,19.7,54.1,28.4,45.1,39.6C36.2,50.8,29.6,64.5,19,70.2C8.4,75.8,-6.3,73.4,-18.7,67.9C-31.2,62.4,-41.6,53.7,-47.1,43.2C-52.6,32.6,-53.1,20.2,-50.5,9.9C-47.8,-0.3,-41.9,-8.4,-39.3,-19.5C-36.6,-30.5,-37.1,-44.5,-31.1,-55.7C-25.1,-66.8,-12.5,-75,-2,-71.8C8.5,-68.7,17,-54.1,31,-46.6Z" transform="translate(100 100)" />
</svg>
